<?xml version="1.0" encoding="utf-8"?>
<!-- Generator: Adobe Illustrator 16.0.0, SVG Export Plug-In . SVG Version: 6.00 Build 0)  -->
<!DOCTYPE svg PUBLIC "-//W3C//DTD SVG 1.1//EN" "http://www.w3.org/Graphics/SVG/1.1/DTD/svg11.dtd">
<svg version="1.1" id="Layer_1" xmlns="http://www.w3.org/2000/svg" xmlns:xlink="http://www.w3.org/1999/xlink" x="0px" y="0px"
	 width="200px" height="40px" viewBox="0 0 200 40" enable-background="new 0 0 200 40" xml:space="preserve">
<g>
	<rect x="9" y="14" fill="#999999" width="22" height="2"/>
</g>
<path fill="#EB7B59" d="M33,9v22H7V9H33 M35,7H5v26h30V7L35,7z"/>
<path fill="#EB7B59" d="M153,10v21h-26V10H153 M155,8h-30v25h30V8L155,8z"/>
<path fill="#EB7B59" d="M192.1,9v22h-24V9H192.1 M194.1,7h-28v26h28V7L194.1,7z"/>
<circle fill="none" stroke="#EB7B59" stroke-width="2" stroke-miterlimit="10" cx="59.5" cy="19.5" r="13.5"/>
<g>
	<path fill="#999999" d="M188.338,14.119h-16.477c-0.564,0-1.022,0.458-1.022,1.021v9.717c0,0.563,0.458,1.022,1.022,1.022h16.477
		c0.564,0,1.021-0.459,1.021-1.022V15.14C189.359,14.577,188.902,14.119,188.338,14.119L188.338,14.119z M184.41,18.621
		c-0.484,0.29-0.563,0.854-0.168,1.262l3.787,3.938c0.197,0.203,0.189,0.527-0.014,0.724c-0.1,0.095-0.228,0.144-0.354,0.144
		c-0.135,0-0.27-0.054-0.37-0.156l-3.953-4.109c-0.394-0.408-1.104-0.503-1.588-0.215l-1.39,0.828
		c-0.08,0.049-0.172,0.072-0.262,0.072c-0.096,0-0.188-0.024-0.271-0.078l-1.373-0.852c-0.479-0.298-1.187-0.21-1.577,0.198
		l-3.998,4.153c-0.1,0.104-0.234,0.156-0.367,0.156c-0.128,0-0.255-0.047-0.354-0.143c-0.203-0.195-0.21-0.521-0.014-0.723
		l3.845-3.997c0.392-0.407,0.319-0.979-0.159-1.276l-4.1-2.546c-0.24-0.148-0.313-0.464-0.164-0.704
		c0.147-0.24,0.463-0.313,0.703-0.165l6.963,4.324c0.479,0.298,1.263,0.306,1.748,0.017l7.291-4.346
		c0.242-0.145,0.559-0.065,0.703,0.178c0.144,0.243,0.064,0.556-0.18,0.701L184.41,18.621z"/>
</g>
<g>
	<path fill="#999999" d="M95.857,20.057c-0.145,0-0.287-0.065-0.378-0.19c-0.153-0.209-0.108-0.501,0.099-0.654l3.067-2.253
		c0.531-0.357,1.316-0.373,1.845-0.047l0.417,0.257c0.18,0.111,0.471,0.07,0.61-0.083l0.635-0.688
		c0.226-0.245,0.535-0.39,0.869-0.403c0.6-0.027,1.063,0.537,1.234,0.781l0.27,0.379c0.147,0.21,0.099,0.502-0.111,0.651
		c-0.212,0.149-0.504,0.099-0.652-0.111l-0.269-0.379c-0.164-0.231-0.363-0.382-0.435-0.386c-0.084,0.002-0.162,0.039-0.22,0.102
		l-0.633,0.688c-0.444,0.484-1.229,0.592-1.79,0.247l-0.418-0.258c-0.212-0.131-0.607-0.123-0.814,0.016l-3.052,2.243
		C96.051,20.028,95.953,20.057,95.857,20.057L95.857,20.057z"/>
	<path fill="#999999" d="M106.309,21.756c0.151-0.152,0.248-0.363,0.248-0.598v-6.124c0-0.233-0.097-0.445-0.248-0.599
		c-0.262-0.26-0.408-0.248-0.175-0.248h0.427c0.467,0,0.847-0.353,0.847-0.787c0-0.436-0.38-0.789-0.847-0.789H93.44
		c-0.467,0-0.846,0.353-0.846,0.789c0,0.434,0.379,0.787,0.846,0.787h0.427c0.234,0,0.086-0.013-0.174,0.248
		c-0.154,0.154-0.248,0.365-0.248,0.599v6.124c0,0.234,0.094,0.443,0.248,0.598c0.259,0.26,0.408,0.248,0.174,0.248H93.44
		c-0.467,0-0.846,0.211-0.846,0.475c0,0.261,0.379,0.472,0.846,0.472h5.127c0.517,0,0.91,0.071,0.897,0.164
		c-0.008,0.055-0.013,0.108-0.013,0.168c0,0.442-0.27,1.071-0.601,1.397c0,0-0.257,0.254-0.573,0.564
		c-0.315,0.313-0.591,0.563-0.614,0.559c-0.014-0.002-0.028-0.004-0.045-0.004c-0.437,0-0.793,0.357-0.793,0.793
		c0,0.439,0.356,0.795,0.793,0.795c0.438,0,0.796-0.354,0.796-0.795c0-0.006-0.003-0.012-0.003-0.016
		c-0.001-0.012,0.104-0.125,0.235-0.256l0.237-0.236c0.103-0.104,0.199-0.168,0.284-0.193c0.183-0.057,0.168,0.234,0.099,0.396
		c-0.039,0.094-0.063,0.196-0.063,0.307c0,0.439,0.356,0.796,0.795,0.796s0.793-0.355,0.793-0.796c0-0.108-0.021-0.213-0.064-0.309
		c-0.066-0.16-0.082-0.449,0.101-0.396c0.086,0.025,0.181,0.09,0.284,0.193l0.13,0.129c0.071,0.07,0.241,0.309,0.356,0.545
		c0.07,0.143,0.152,0.291,0.262,0.4c0.145,0.141,0.343,0.229,0.562,0.229c0.437,0,0.793-0.354,0.793-0.795
		c0-0.437-0.356-0.793-0.793-0.793c-0.022,0-0.043,0.002-0.063,0.007c-0.034,0.002-0.319-0.246-0.637-0.56l-0.574-0.565
		c-0.33-0.33-0.603-0.955-0.603-1.398c0-0.059-0.003-0.115-0.012-0.168c-0.015-0.092,0.382-0.164,0.897-0.164h5.127
		c0.467,0,0.848-0.211,0.848-0.473c0-0.263-0.381-0.474-0.848-0.474h-0.425C105.898,22.004,106.047,22.016,106.309,21.756
		L106.309,21.756z M105.193,19.953c0,0.516-0.418,0.934-0.935,0.934h-8.52c-0.518,0-0.937-0.418-0.937-0.934v-4.195
		c0-0.518,0.419-0.936,0.937-0.936h8.52c0.517,0,0.935,0.418,0.935,0.936V19.953z"/>
</g>
<path fill="#EB7B59" d="M112,9v22H88V9H112 M114,7H86v26h28V7L114,7z"/>
<polyline fill="none" stroke="#999999" stroke-width="2" stroke-miterlimit="10" points="60.817,15.182 65.642,20.007 60.83,24.818 
	"/>
<polyline fill="none" stroke="#999999" stroke-width="2" stroke-miterlimit="10" points="57.995,15.182 53.17,20.007 57.982,24.818 
	"/>
<g>
	<line fill="none" stroke="#999999" stroke-width="3" stroke-miterlimit="10" x1="130.978" y1="19.801" x2="136.251" y2="26.056"/>
	<line fill="none" stroke="#999999" stroke-width="3" stroke-miterlimit="10" x1="134.356" y1="26.095" x2="149.023" y2="13.706"/>
</g>
</svg>
